<?xml version="1.0" encoding="utf-8"?>
<!-- Generator: Adobe Illustrator 19.2.1, SVG Export Plug-In . SVG Version: 6.00 Build 0)  -->
<svg version="1.1" id="Layer_1" xmlns="http://www.w3.org/2000/svg" xmlns:xlink="http://www.w3.org/1999/xlink" x="0px" y="0px"
	 viewBox="0 0 24 24" style="enable-background:new 0 0 24 24;" xml:space="preserve">
<style type="text/css">
	.st0{fill:none;stroke:#FFFFFF;stroke-miterlimit:10;}
	.st1{fill:none;stroke:#FFFFFF;stroke-linecap:round;stroke-miterlimit:10;}
</style>
<g>
	<path class="st0" d="M20,6.4c0,0.6-0.9,1.1-1.5,1.1H5.2C4.5,7.5,4,7,4,6.4V5.6C4,5,4.5,4.5,5.2,4.5h13.3C19.1,4.5,20,5,20,5.6V6.4z
		"/>
	<path class="st0" d="M18,19.6c0,0.6-0.7,0.9-1.3,0.9H6.9c-0.6,0-0.9-0.3-0.9-0.9V7.5h12V19.6z"/>
	<line class="st1" x1="12" y1="8" x2="12" y2="17"/>
	<line class="st1" x1="9" y1="8" x2="9" y2="17"/>
	<line class="st1" x1="15" y1="8" x2="15" y2="17"/>
	<line class="st1" x1="12" y1="3" x2="12" y2="4"/>
</g>
</svg>
