<?xml version="1.0" encoding="utf-8"?>
<!-- Generator: Adobe Illustrator 19.2.1, SVG Export Plug-In . SVG Version: 6.00 Build 0)  -->
<svg version="1.1" id="Layer_1" xmlns="http://www.w3.org/2000/svg" xmlns:xlink="http://www.w3.org/1999/xlink" x="0px" y="0px"
	 viewBox="0 0 320 320" style="enable-background:new 0 0 320 320;" xml:space="preserve">
<style type="text/css">
	.st0{fill-rule:evenodd;clip-rule:evenodd;fill:#FFFFFF;}
</style>
<g>
	<path class="st0" d="M84.1,292.1V114.5h-59v177.5H84.1L84.1,292.1z M54.6,90.3C75.2,90.3,88,76.6,88,59.6
		c-0.4-17.4-12.8-30.7-33-30.7c-20.2,0-33.4,13.3-33.4,30.7c0,17,12.8,30.7,32.6,30.7H54.6L54.6,90.3z"/>
	<path class="st0" d="M116.8,292.1h59v-99.1c0-5.3,0.4-10.6,1.9-14.4c4.3-10.6,14-21.6,30.3-21.6c21.4,0,29.9,16.3,29.9,40.2v95h59
		V190.3c0-54.5-29.1-79.9-67.9-79.9c-31.8,0-45.8,17.8-53.6,29.9h0.4v-25.7h-59C117.5,131.2,116.8,292.1,116.8,292.1L116.8,292.1z"
		/>
</g>
</svg>
