<?xml version="1.0" encoding="utf-8"?>
<!-- Generator: Adobe Illustrator 19.2.1, SVG Export Plug-In . SVG Version: 6.00 Build 0)  -->
<svg version="1.1" id="Layer_1" xmlns="http://www.w3.org/2000/svg" xmlns:xlink="http://www.w3.org/1999/xlink" x="0px" y="0px"
	 viewBox="0 0 160 160" style="enable-background:new 0 0 160 160;" xml:space="preserve">
<style type="text/css">
	.st0{fill:#FFFFFF;}
</style>
<path class="st0" d="M69.2,107c-4.1,21.5-9.1,42.2-24,53c-4.6-32.6,6.7-57,12-83c-9-15.1,1.1-45.5,20-38c23.3,9.2-20.2,56.1,9,62
	c30.4,6.1,42.9-52.8,24-72c-27.3-27.7-79.4-0.6-73,39c1.6,9.7,11.6,12.6,4,26c-17.5-3.9-22.7-17.6-22-36c1.1-30.1,27-51.1,53-54
	c32.9-3.7,63.7,12.1,68,43c4.8,34.9-14.8,72.7-50,70C80.6,116.3,76.6,111.5,69.2,107z"/>
</svg>
